<svg width="28" height="26" viewBox="0 0 28 26" fill="none" xmlns="http://www.w3.org/2000/svg">
<g clip-path="url(#clip0_11_19)">
<path d="M25.6676 6.15207C24.7543 4.83598 23.5974 3.69417 22.2581 2.77183L25.2289 0H16.583V8.06693L20.6223 4.29804C23.6838 6.29024 25.5828 9.58988 25.5828 13.12C25.5828 19.0506 20.3868 23.8754 14 23.8754C7.61318 23.8754 2.41718 19.0505 2.41718 13.12C2.41718 8.9671 4.91725 5.25848 8.94181 3.44128L7.94128 1.53067C5.63492 2.57198 3.68479 4.18537 2.30186 6.19619C0.880493 8.26295 0.129196 10.6571 0.129196 13.12C0.129196 20.2221 6.35159 26 14 26C21.6484 26 27.8708 20.2221 27.8708 13.12C27.8708 10.6386 27.109 8.22917 25.6676 6.15207Z" fill="white"/>
</g>
<defs>
<clipPath id="clip0_11_19">
<rect width="28" height="26" fill="white"/>
</clipPath>
</defs>
</svg>
