<svg width="39" height="33" viewBox="0 0 39 33" fill="none" xmlns="http://www.w3.org/2000/svg">
<g clip-path="url(#clip0_43_3)">
<path fill-rule="evenodd" clip-rule="evenodd" d="M27.9783 33H11.0218C9.89747 33 8.81923 32.6221 8.02424 31.9494C7.22924 31.2767 6.78262 30.3644 6.78262 29.4131V16.5C6.78262 15.5487 7.22924 14.6363 8.02424 13.9637C8.81923 13.291 9.89747 12.9131 11.0218 12.9131H14.4131C14.6379 12.9131 14.8536 12.9886 15.0126 13.1232C15.1716 13.2577 15.2609 13.4402 15.2609 13.6304C15.2609 13.8207 15.1716 14.0032 15.0126 14.1377C14.8536 14.2723 14.6379 14.3478 14.4131 14.3478H11.0218C10.3472 14.3478 9.70024 14.5746 9.22324 14.9782C8.74625 15.3818 8.47828 15.9292 8.47828 16.5V29.4131C8.47828 29.9839 8.74625 30.5313 9.22324 30.9349C9.70024 31.3385 10.3472 31.5652 11.0218 31.5652H27.9783C28.6528 31.5652 29.2998 31.3385 29.7768 30.9349C30.2538 30.5313 30.5218 29.9839 30.5218 29.4131V16.5C30.5218 15.9292 30.2538 15.3818 29.7768 14.9782C29.2998 14.5746 28.6528 14.3478 27.9783 14.3478H24.587C24.3621 14.3478 24.1465 14.2723 23.9875 14.1377C23.8285 14.0032 23.7391 13.8207 23.7391 13.6304C23.7391 13.4402 23.8285 13.2577 23.9875 13.1232C24.1465 12.9886 24.3621 12.9131 24.587 12.9131H27.9783C29.1026 12.9131 30.1808 13.291 30.9758 13.9637C31.7708 14.6363 32.2174 15.5487 32.2174 16.5V29.4131C32.2174 30.3644 31.7708 31.2767 30.9758 31.9494C30.1808 32.6221 29.1026 33 27.9783 33ZM25.718 6.96947L20.3478 2.42551V20.8044C20.3478 20.9946 20.2585 21.1771 20.0995 21.3116C19.9405 21.4462 19.7249 21.5218 19.5 21.5218C19.2752 21.5218 19.0595 21.4462 18.9005 21.3116C18.7415 21.1771 18.6522 20.9946 18.6522 20.8044V2.42551L13.2821 6.96947C13.1252 7.09409 12.9172 7.16216 12.702 7.15929C12.4869 7.15642 12.2815 7.08283 12.1294 6.95409C11.9772 6.82536 11.8903 6.65158 11.8869 6.46954C11.8835 6.2875 11.9639 6.11148 12.1112 5.97875L18.8133 0.307774C18.8363 0.271327 18.8633 0.236747 18.8938 0.204469C18.9721 0.138181 19.0654 0.0859142 19.1681 0.0507872C19.2708 0.0156603 19.3808 -0.00160784 19.4915 1.28176e-05H19.5H19.5085C19.6184 -0.00131377 19.7275 0.0159628 19.8295 0.0508274C19.9314 0.085692 20.024 0.137441 20.102 0.203035C20.1314 0.234373 20.1572 0.268002 20.1791 0.303469L26.8846 5.97732C26.9655 6.04159 27.0303 6.11896 27.0752 6.20484C27.1201 6.29073 27.1441 6.38336 27.1458 6.47725C27.1476 6.57114 27.127 6.66437 27.0854 6.75141C27.0437 6.83844 26.9818 6.91751 26.9033 6.9839C26.8249 7.0503 26.7314 7.10268 26.6286 7.13793C26.5257 7.17318 26.4155 7.19058 26.3046 7.1891C26.1936 7.18762 26.0841 7.16729 25.9826 7.12932C25.8811 7.09134 25.7897 7.03649 25.7137 6.96804L25.718 6.96947Z" fill="white" fill-opacity="0.75"/>
</g>
<defs>
<clipPath id="clip0_43_3">
<rect width="39" height="33" fill="white"/>
</clipPath>
</defs>
</svg>
